<?xml version="1.0" encoding="utf-8"?>
<!-- Generator: Adobe Illustrator 27.0.0, SVG Export Plug-In . SVG Version: 6.00 Build 0)  -->
<svg version="1.1" baseProfile="tiny" id="Livello_1"
	 xmlns="http://www.w3.org/2000/svg" xmlns:xlink="http://www.w3.org/1999/xlink" x="0px" y="0px" viewBox="0 0 663.7 181.79"
	 overflow="visible" xml:space="preserve">
<g>
	<g>
		<linearGradient id="SVGID_1_" gradientUnits="userSpaceOnUse" x1="15.2967" y1="90.3348" x2="229.3303" y2="90.3348">
			<stop  offset="0" style="stop-color:#8D2DFF"/>
			<stop  offset="1" style="stop-color:#3993F9"/>
		</linearGradient>
		<path fill="url(#SVGID_1_)" d="M201.36,168.83c-4.75,0-9.55-1.4-14.36-4.2c-5.67-3.3-11.35-8.54-17.35-16.01
			c-9.55-11.9-20.61-15.52-47.35-15.52c-26.82,0-38.45,3.77-47.86,15.52c-6.16,7.66-11.62,12.75-17.17,16.02
			c-7.49,4.41-15.06,5.33-22.51,2.76c-7.42-2.57-16.73-9.98-18.96-30.69c-1.43-13.28,0.19-30.96,4.71-51.13
			c4.52-20.18,9.92-35.55,16.52-47c7.57-13.14,17.1-21.49,28.32-24.8l0.1-0.03c4.58-1.28,9.32-1.92,14.07-1.9
			c6.1,0,11.42,1.49,17.04,3.07c6.8,1.91,14.52,4.07,25.75,4.07c11.23,0,18.93-2.16,25.73-4.06c5.63-1.58,10.95-3.07,17.06-3.07
			c4.61-0.02,9.21,0.62,13.64,1.92c21.15,6.25,35.39,29.07,44.85,71.83c4.78,21.62,6.55,38.3,5.4,51.01
			c-0.7,7.72-2.44,13.91-5.34,18.94c-3.36,5.83-8.16,9.85-14.28,11.94C206.73,168.38,204.05,168.83,201.36,168.83z M122.31,118.82
			c15.73,0,26.61,1.31,35.27,4.26c9.27,3.15,16.64,8.43,23.2,16.6c10.09,12.57,16.75,14.9,20.62,14.9c1.56,0,2.67-0.38,3.36-0.62
			c11.76-4.02,13.46-26.6,4.89-65.3l0,0c-8.1-36.64-19.53-56.66-34.94-61.22c-3.09-0.9-6.32-1.35-9.57-1.34l-0.04,0
			c-4.16,0-8.16,1.12-13.23,2.54c-7.3,2.05-16.39,4.59-29.58,4.59c-13.19,0-22.29-2.55-29.6-4.6c-5.07-1.42-9.07-2.54-13.21-2.54
			l-0.04,0c-3.41-0.02-6.83,0.44-10.12,1.35c-7.67,2.28-14.2,8.24-19.95,18.22c-5.87,10.18-10.76,24.25-14.96,43
			c-4.18,18.66-5.71,34.73-4.45,46.48c0.79,7.33,3.07,16.53,9.44,18.74c4.53,1.57,11.34,1.37,23.88-14.23
			c6.53-8.15,14-13.44,23.49-16.61C95.58,120.13,106.53,118.82,122.31,118.82z"/>
		
			<linearGradient id="SVGID_00000132077801161454881940000014375396891704676012_" gradientUnits="userSpaceOnUse" x1="129.4418" y1="76.0555" x2="147.2788" y2="76.0555">
			<stop  offset="0" style="stop-color:#8D2DFF"/>
			<stop  offset="1" style="stop-color:#3993F9"/>
		</linearGradient>
		<circle fill="url(#SVGID_00000132077801161454881940000014375396891704676012_)" cx="138.36" cy="76.06" r="8.92"/>
		
			<linearGradient id="SVGID_00000089532641631844245590000002253850355271879600_" gradientUnits="userSpaceOnUse" x1="149.0625" y1="95.6762" x2="166.8995" y2="95.6762">
			<stop  offset="0" style="stop-color:#8D2DFF"/>
			<stop  offset="1" style="stop-color:#3993F9"/>
		</linearGradient>
		<path fill="url(#SVGID_00000089532641631844245590000002253850355271879600_)" d="M157.98,104.59c-4.93,0-8.92-3.99-8.92-8.92
			c0-4.93,3.99-8.92,8.92-8.92s8.92,3.99,8.92,8.92c0,0.01,0,0.01,0,0.02C166.89,100.62,162.9,104.59,157.98,104.59z"/>
		
			<linearGradient id="SVGID_00000033348749787914756200000014838854274747113366_" gradientUnits="userSpaceOnUse" x1="149.0625" y1="56.4348" x2="166.8995" y2="56.4348">
			<stop  offset="0" style="stop-color:#8D2DFF"/>
			<stop  offset="1" style="stop-color:#3993F9"/>
		</linearGradient>
		<circle fill="url(#SVGID_00000033348749787914756200000014838854274747113366_)" cx="157.98" cy="56.43" r="8.92"/>
		
			<linearGradient id="SVGID_00000043453885745352405080000007893023366345026460_" gradientUnits="userSpaceOnUse" x1="168.6832" y1="76.0555" x2="186.5202" y2="76.0555">
			<stop  offset="0" style="stop-color:#8D2DFF"/>
			<stop  offset="1" style="stop-color:#3993F9"/>
		</linearGradient>
		<circle fill="url(#SVGID_00000043453885745352405080000007893023366345026460_)" cx="177.6" cy="76.06" r="8.92"/>
		
			<linearGradient id="SVGID_00000054966116950675978820000002148258930010744467_" gradientUnits="userSpaceOnUse" x1="72.3633" y1="76.0554" x2="86.6329" y2="76.0554">
			<stop  offset="0" style="stop-color:#8D2DFF"/>
			<stop  offset="1" style="stop-color:#3993F9"/>
		</linearGradient>
		<path fill="url(#SVGID_00000054966116950675978820000002148258930010744467_)" d="M79.5,104.59c-3.94,0-7.13-3.19-7.13-7.13V54.65
			c0-3.94,3.19-7.13,7.13-7.13s7.13,3.19,7.13,7.13v42.81C86.63,101.4,83.44,104.59,79.5,104.59z"/>
		
			<linearGradient id="SVGID_00000010271440850708877700000008783738345599324292_" gradientUnits="userSpaceOnUse" x1="50.9589" y1="76.0554" x2="108.0373" y2="76.0554">
			<stop  offset="0" style="stop-color:#8D2DFF"/>
			<stop  offset="1" style="stop-color:#3993F9"/>
		</linearGradient>
		<path fill="url(#SVGID_00000010271440850708877700000008783738345599324292_)" d="M100.9,83.19H58.09c-3.94,0-7.13-3.19-7.13-7.13
			s3.19-7.13,7.13-7.13h42.81c3.94,0,7.13,3.19,7.13,7.13S104.84,83.19,100.9,83.19z"/>
	</g>
	<g>
		<path fill="#8E2CFF" d="M286.51,90.48c-5.78,0-11.1-0.9-15.96-2.7c-4.86-1.8-9.08-4.37-12.65-7.7c-3.57-3.33-6.34-7.28-8.31-11.83
			c-1.97-4.56-2.96-9.59-2.96-15.1c0-5.51,0.98-10.54,2.96-15.1c1.97-4.56,4.76-8.5,8.36-11.83c3.6-3.33,7.87-5.9,12.8-7.7
			c4.93-1.8,10.35-2.7,16.27-2.7c7.07,0,13.38,1.19,18.92,3.57c5.54,2.38,10.11,5.78,13.72,10.2l-15.4,13.57
			c-2.24-2.58-4.68-4.54-7.29-5.87c-2.62-1.33-5.53-1.99-8.72-1.99c-2.65,0-5.05,0.41-7.19,1.22c-2.14,0.82-3.96,2.01-5.46,3.57
			c-1.5,1.56-2.65,3.43-3.47,5.61c-0.82,2.18-1.22,4.66-1.22,7.45c0,2.65,0.41,5.08,1.22,7.29c0.82,2.21,1.97,4.1,3.47,5.66
			c1.5,1.56,3.28,2.77,5.35,3.62c2.07,0.85,4.4,1.27,6.99,1.27c2.72,0,5.37-0.46,7.96-1.38c2.58-0.92,5.34-2.5,8.26-4.74
			l13.46,16.52c-4.35,2.92-9.32,5.17-14.89,6.73C297.15,89.7,291.75,90.48,286.51,90.48z M296.71,78.34V51.21h20.91V81.4
			L296.71,78.34z"/>
		<path fill="#8E2CFF" d="M345.16,89.87c-4.56,0-8.36-0.78-11.42-2.35c-3.06-1.56-5.37-3.65-6.94-6.27
			c-1.56-2.62-2.35-5.52-2.35-8.72c0-3.6,0.92-6.66,2.75-9.18c1.84-2.52,4.64-4.42,8.42-5.71c3.77-1.29,8.55-1.94,14.33-1.94h11.63
			v11.12h-7.96c-2.45,0-4.23,0.39-5.35,1.17c-1.12,0.78-1.68,1.96-1.68,3.52c0,1.29,0.49,2.36,1.48,3.21
			c0.98,0.85,2.33,1.27,4.03,1.27c1.56,0,3.01-0.42,4.34-1.27c1.33-0.85,2.29-2.19,2.91-4.03l2.96,6.83
			c-0.88,4.15-2.75,7.24-5.61,9.28C353.83,88.85,349.99,89.87,345.16,89.87z M360.97,88.85v-9.89l-1.63-2.65V57.53
			c0-2.72-0.83-4.79-2.5-6.22c-1.67-1.43-4.37-2.14-8.11-2.14c-2.52,0-5.07,0.39-7.65,1.17c-2.58,0.78-4.79,1.85-6.63,3.21
			l-7.34-15.2c3.26-2.04,7.17-3.6,11.73-4.69c4.55-1.09,9.01-1.63,13.36-1.63c9.59,0,17.02,2.14,22.29,6.43
			c5.27,4.28,7.91,11.08,7.91,20.4v29.99H360.97z"/>
		<path fill="#8E2CFF" d="M466.23,32.03c4.22,0,8.01,0.87,11.37,2.6s6.02,4.44,7.96,8.11c1.94,3.67,2.91,8.43,2.91,14.28v31.82
			h-23.05V61c0-3.47-0.58-5.93-1.73-7.4c-1.16-1.46-2.65-2.19-4.49-2.19c-1.36,0-2.58,0.34-3.67,1.02c-1.09,0.68-1.96,1.75-2.6,3.21
			c-0.65,1.46-0.97,3.45-0.97,5.97v27.23H428.9V61c0-3.47-0.54-5.93-1.63-7.4c-1.09-1.46-2.62-2.19-4.59-2.19
			c-1.36,0-2.58,0.34-3.67,1.02c-1.09,0.68-1.96,1.75-2.6,3.21c-0.65,1.46-0.97,3.45-0.97,5.97v27.23h-23.05V33.05h21.93v16.01
			l-4.49-4.49c2.11-4.22,4.93-7.36,8.47-9.44c3.54-2.07,7.48-3.11,11.83-3.11c4.9,0,9.23,1.27,13.01,3.83
			c3.77,2.55,6.31,6.58,7.6,12.09l-7.04-1.12c2.04-4.62,5.01-8.24,8.92-10.86C456.53,33.34,461.06,32.03,466.23,32.03z"/>
		<path fill="#8E2CFF" d="M530.29,89.87c-6.8,0-12.74-1.26-17.8-3.77c-5.07-2.52-8.99-5.97-11.78-10.35
			c-2.79-4.39-4.18-9.33-4.18-14.84c0-5.64,1.38-10.64,4.13-14.99c2.75-4.35,6.53-7.75,11.32-10.2c4.79-2.45,10.18-3.67,16.17-3.67
			c5.51,0,10.59,1.09,15.25,3.26c4.66,2.18,8.4,5.41,11.22,9.69c2.82,4.28,4.23,9.59,4.23,15.91c0,0.82-0.04,1.72-0.1,2.7
			c-0.07,0.99-0.14,1.89-0.2,2.7H515.6V55.19h30.7l-8.67,2.96c0-2.18-0.39-4.03-1.17-5.56c-0.78-1.53-1.85-2.72-3.21-3.57
			c-1.36-0.85-2.99-1.27-4.9-1.27s-3.55,0.43-4.95,1.27c-1.39,0.85-2.46,2.04-3.21,3.57c-0.75,1.53-1.12,3.38-1.12,5.56v3.47
			c0,2.38,0.47,4.42,1.43,6.12c0.95,1.7,2.31,2.98,4.08,3.82c1.77,0.85,3.91,1.27,6.43,1.27c2.58,0,4.71-0.34,6.38-1.02
			c1.67-0.68,3.42-1.7,5.25-3.06l12.04,12.14c-2.72,2.92-6.07,5.15-10.05,6.68C540.64,89.1,535.86,89.87,530.29,89.87z"/>
		<path fill="#8E2CFF" d="M587.92,89.87c-4.76,0-9.45-0.51-14.08-1.53c-4.62-1.02-8.36-2.35-11.22-3.98l6.32-15.2
			c2.65,1.56,5.73,2.79,9.23,3.67c3.5,0.88,6.92,1.33,10.25,1.33c2.79,0,4.67-0.24,5.66-0.71c0.99-0.48,1.48-1.12,1.48-1.94
			s-0.58-1.41-1.73-1.79c-1.16-0.37-2.69-0.66-4.59-0.87c-1.9-0.2-4-0.46-6.27-0.76c-2.28-0.31-4.57-0.77-6.89-1.38
			c-2.31-0.61-4.42-1.53-6.32-2.75c-1.91-1.22-3.43-2.87-4.59-4.95c-1.16-2.07-1.73-4.71-1.73-7.91c0-3.53,1.07-6.73,3.21-9.59
			c2.14-2.86,5.34-5.15,9.59-6.88c4.25-1.73,9.5-2.6,15.76-2.6c4.08,0,8.16,0.37,12.24,1.12c4.08,0.75,7.58,1.9,10.51,3.47
			l-6.32,15.2c-2.86-1.56-5.66-2.63-8.42-3.21c-2.75-0.58-5.32-0.87-7.7-0.87c-2.92,0-4.91,0.27-5.97,0.82
			c-1.05,0.54-1.58,1.16-1.58,1.84c0,0.82,0.58,1.43,1.73,1.84c1.16,0.41,2.69,0.71,4.59,0.92c1.9,0.2,3.99,0.46,6.27,0.77
			c2.28,0.31,4.55,0.78,6.83,1.43c2.28,0.65,4.37,1.58,6.27,2.8c1.9,1.22,3.43,2.87,4.59,4.95c1.16,2.07,1.73,4.71,1.73,7.9
			c0,3.33-1.05,6.44-3.16,9.33c-2.11,2.89-5.3,5.2-9.59,6.94S594.38,89.87,587.92,89.87z"/>
		<path fill="#3894F9" d="M249.48,163.85v-71.4h19.79l28.56,46.61h-10.4l27.74-46.61h19.79l0.2,71.4h-21.93l-0.2-38.35h3.47
			l-18.97,31.93h-10.61l-19.79-31.93h4.28v38.35H249.48z"/>
		<path fill="#3894F9" d="M366.58,164.87c-4.56,0-8.36-0.78-11.42-2.35c-3.06-1.56-5.37-3.65-6.94-6.27
			c-1.56-2.62-2.35-5.52-2.35-8.72c0-3.6,0.92-6.66,2.75-9.18c1.84-2.51,4.64-4.42,8.42-5.71c3.77-1.29,8.55-1.94,14.33-1.94H383
			v11.12h-7.96c-2.45,0-4.23,0.39-5.35,1.17c-1.12,0.78-1.68,1.96-1.68,3.52c0,1.29,0.49,2.36,1.48,3.21
			c0.98,0.85,2.33,1.28,4.03,1.28c1.56,0,3.01-0.42,4.34-1.28c1.33-0.85,2.29-2.19,2.91-4.03l2.96,6.83
			c-0.88,4.15-2.75,7.24-5.61,9.28C375.25,163.85,371.41,164.87,366.58,164.87z M382.39,163.85v-9.89l-1.63-2.65v-18.77
			c0-2.72-0.83-4.79-2.5-6.22c-1.67-1.43-4.37-2.14-8.11-2.14c-2.52,0-5.07,0.39-7.65,1.17c-2.58,0.78-4.79,1.85-6.63,3.21
			l-7.34-15.2c3.26-2.04,7.17-3.6,11.73-4.69c4.55-1.09,9.01-1.63,13.36-1.63c9.59,0,17.02,2.14,22.29,6.43
			c5.27,4.28,7.91,11.08,7.91,20.4v29.99H382.39z"/>
		<path fill="#3894F9" d="M416.36,163.85v-55.79h21.93v16.83l-3.57-4.79c1.7-4.35,4.42-7.62,8.16-9.79
			c3.74-2.18,8.23-3.26,13.46-3.26v20.4c-1.02-0.14-1.92-0.24-2.7-0.31c-0.78-0.07-1.58-0.1-2.4-0.1c-3.47,0-6.31,0.9-8.52,2.7
			c-2.21,1.8-3.32,4.91-3.32,9.33v24.79H416.36z"/>
		<path fill="#3894F9" d="M465.42,163.85V88.16h23.05v75.68H465.42z M484.69,154.67l0.51-27.13l19.28-19.48h27.23l-25.5,26.72
			l-11.53,9.28L484.69,154.67z M505.71,163.85l-15.3-19.38l14.18-17.44l28.97,36.82H505.71z"/>
		<path fill="#3894F9" d="M568.95,164.87c-6.8,0-12.73-1.26-17.8-3.77c-5.07-2.51-8.99-5.97-11.78-10.35
			c-2.79-4.39-4.18-9.33-4.18-14.84c0-5.64,1.38-10.64,4.13-14.99c2.75-4.35,6.53-7.75,11.32-10.2c4.79-2.45,10.18-3.67,16.17-3.67
			c5.51,0,10.59,1.09,15.25,3.26c4.66,2.18,8.4,5.41,11.22,9.69c2.82,4.28,4.23,9.59,4.23,15.91c0,0.82-0.04,1.72-0.1,2.7
			c-0.07,0.99-0.14,1.89-0.2,2.7h-42.94v-11.12h30.7l-8.67,2.96c0-2.18-0.39-4.03-1.17-5.56c-0.78-1.53-1.85-2.72-3.21-3.57
			c-1.36-0.85-2.99-1.28-4.9-1.28c-1.9,0-3.55,0.43-4.95,1.28c-1.39,0.85-2.46,2.04-3.21,3.57c-0.75,1.53-1.12,3.38-1.12,5.56v3.47
			c0,2.38,0.48,4.42,1.43,6.12c0.95,1.7,2.31,2.98,4.08,3.83c1.77,0.85,3.91,1.28,6.43,1.28c2.58,0,4.71-0.34,6.38-1.02
			c1.67-0.68,3.42-1.7,5.25-3.06l12.04,12.14c-2.72,2.92-6.07,5.15-10.05,6.68C579.3,164.1,574.52,164.87,568.95,164.87z"/>
		<path fill="#3894F9" d="M602.2,127.94v-16.83h42.13v16.83H602.2z M634.23,164.87c-7.69,0-13.67-1.85-17.95-5.56
			c-4.28-3.71-6.43-9.4-6.43-17.08V95.51h23.05v46.51c0,1.7,0.46,3.03,1.38,3.98c0.92,0.95,2.06,1.43,3.42,1.43
			c1.97,0,3.71-0.51,5.2-1.53l5.51,16.01c-1.77,1.02-3.89,1.77-6.38,2.24C639.55,164.63,636.95,164.87,634.23,164.87z"/>
	</g>
</g>
</svg>
